HIERARCHY
ROOT Hips
{
	OFFSET 0.000000 0.000000 0.000000
	CHANNELS 6 Xposition Yposition Zposition Xrotation Yrotation Zrotation
	JOINT LeftUpLeg_virtual
	{
		OFFSET 0.000000 0.000000 0.000000
		CHANNELS 3 Xrotation Yrotation Zrotation
		JOINT LeftUpLeg
		{
			OFFSET 11.394100 -6.187798 -0.413800
			CHANNELS 3 Xrotation Yrotation Zrotation
			JOINT LeftLeg
			{
				OFFSET 0.430247 -32.302673 3.732800
				CHANNELS 3 Xrotation Yrotation Zrotation
				JOINT LeftFoot
				{
					OFFSET -0.430247 -48.264931 -6.423300
					CHANNELS 3 Xrotation Yrotation Zrotation
					JOINT LeftToeBase
					{
						OFFSET 4.230900 -16.068199 23.438400
						CHANNELS 3 Xrotation Yrotation Zrotation
						JOINT LeftToe_End
						{
							OFFSET 4.510700 0.695400 19.974600
							CHANNELS 3 Xrotation Yrotation Zrotation
							End Site
							{
								OFFSET 0 0 0
							}
						}
					}
				}
			}
		}
	}
	JOINT RightUpLeg_virtual
	{
		OFFSET 0.000000 0.000000 0.000000
		CHANNELS 3 Xrotation Yrotation Zrotation
		JOINT RightUpLeg
		{
			OFFSET -11.333700 -6.187798 -0.413800
			CHANNELS 3 Xrotation Yrotation Zrotation
			JOINT RightLeg
			{
				OFFSET -0.430392 -32.302628 3.733000
				CHANNELS 3 Xrotation Yrotation Zrotation
				JOINT RightFoot
				{
					OFFSET 0.430392 -48.264973 -6.423500
					CHANNELS 3 Xrotation Yrotation Zrotation
					JOINT RightToeBase
					{
						OFFSET -4.230900 -16.068199 23.438400
						CHANNELS 3 Xrotation Yrotation Zrotation
						JOINT RightToe_End
						{
							OFFSET -4.510700 0.695400 19.974600
							CHANNELS 3 Xrotation Yrotation Zrotation
							End Site
							{
								OFFSET 0 0 0
							}
						}
					}
				}
			}
		}
	}
	JOINT Spine_virtual
	{
		OFFSET 0.000000 0.000000 0.000000
		CHANNELS 3 Xrotation Yrotation Zrotation
		JOINT Spine
		{
			OFFSET -0.002400 12.777504 0.315300
			CHANNELS 3 Xrotation Yrotation Zrotation
			JOINT Spine1
			{
				OFFSET -0.002067 5.816869 0.032633
				CHANNELS 3 Xrotation Yrotation Zrotation
				JOINT Spine1_split
				{
					OFFSET -0.002067 5.816869 0.032633
					CHANNELS 3 Xrotation Yrotation Zrotation
					JOINT Spine2
					{
						OFFSET -0.002067 5.816869 0.032633
						CHANNELS 3 Xrotation Yrotation Zrotation
						JOINT Neck_virtual
						{
							OFFSET 0.000000 0.000000 0.000000
							CHANNELS 3 Xrotation Yrotation Zrotation
							JOINT Neck
							{
								OFFSET -0.003700 21.199493 -0.826900
								CHANNELS 3 Xrotation Yrotation Zrotation
								JOINT Head
								{
									OFFSET 0.000000 20.442200 4.834800
									CHANNELS 3 Xrotation Yrotation Zrotation
									JOINT HeadTop_End
									{
										OFFSET 0.000000 34.668396 4.968400
										CHANNELS 3 Xrotation Yrotation Zrotation
										End Site
										{
											OFFSET 0 0 0
										}
									}
								}
							}
						}
						JOINT LeftShoulder_virtual
						{
							OFFSET 0.000000 0.000000 0.000000
							CHANNELS 3 Xrotation Yrotation Zrotation
							JOINT LeftShoulder
							{
								OFFSET 3.288150 8.794197 -1.372250
								CHANNELS 3 Xrotation Yrotation Zrotation
								JOINT LeftShoulder_split
								{
									OFFSET 3.288150 8.794197 -1.372250
									CHANNELS 3 Xrotation Yrotation Zrotation
									JOINT LeftArm
									{
										OFFSET 11.953299 -2.279007 -0.146200
										CHANNELS 3 Xrotation Yrotation Zrotation
										JOINT LeftForeArm
										{
											OFFSET 18.448900 0.000000 0.000000
											CHANNELS 3 Xrotation Yrotation Zrotation
											JOINT LeftHand
											{
												OFFSET 29.527798 0.000000 0.000000
												CHANNELS 3 Xrotation Yrotation Zrotation
												End Site
												{
													OFFSET 0 0 0
												}
											}
										}
									}
								}
							}
						}
						JOINT RightShoulder_virtual
						{
							OFFSET 0.000000 0.000000 0.000000
							CHANNELS 3 Xrotation Yrotation Zrotation
							JOINT RightShoulder
							{
								OFFSET -3.249400 8.794197 -1.372250
								CHANNELS 3 Xrotation Yrotation Zrotation
								JOINT RightShoulder_split
								{
									OFFSET -3.249400 8.794197 -1.372250
									CHANNELS 3 Xrotation Yrotation Zrotation
									JOINT RightArm
									{
										OFFSET -11.953299 -2.279007 -0.146200
										CHANNELS 3 Xrotation Yrotation Zrotation
										JOINT RightForeArm
										{
											OFFSET -18.448900 0.000000 0.000000
											CHANNELS 3 Xrotation Yrotation Zrotation
											JOINT RightHand
											{
												OFFSET -29.527802 0.000000 0.000000
												CHANNELS 3 Xrotation Yrotation Zrotation
												End Site
												{
													OFFSET 0 0 0
												}
											}
										}
									}
								}
							}
						}
					}
				}
			}
		}
	}
}
MOTION
Frames: 6
Frame Time: 0.03333333
13.210146 99.495346 31.215866 0.000000 0.000000 0.000000 5.794621 27.301560 -13.604733 -101.037069 -14.182454 23.417836 113.793322 -22.152704 7.471610 45.383414 -6.868391 14.230857 -13.212171 -7.666985 -2.645955 0.000000 0.000000 0.000000 -2.295721 23.262419 -11.636998 1.722740 -27.073299 10.269555 21.184202 8.986851 -5.648116 -35.868578 -18.679756 19.560315 13.323349 10.200467 -73.728743 0.000000 0.000000 0.000000 3.363874 14.239589 -13.053432 23.489955 1.202442 6.376600 3.222375 0.390349 -3.360206 0.003675 0.176005 0.196896 0.000000 0.000000 0.000000 1.320176 3.726594 -4.548677 1.639636 16.968446 21.855938 -4.445133 -61.817556 -4.412696 0.000000 0.000000 0.000000 -0.224974 0.830949 -4.182108 1.086999 -21.675569 -11.252783 7.427516 1.775358 2.560418 16.601396 17.113751 -54.601666 144.078278 -68.457873 130.318698 0.000000 0.000000 0.000000 -0.182498 2.019815 -2.819409 -4.348793 4.753283 24.032664 -2.518824 -10.632104 7.543475 7.414641 8.181750 10.499594 -168.432834 52.335785 177.956399 0.000000 0.000000 0.000000 
13.144490 99.436874 39.856716 0.000000 0.000000 0.000000 4.295337 23.111530 -14.655557 -102.055273 -8.787341 26.788639 99.314516 -19.761815 0.696071 32.520221 -7.020463 16.613744 -9.652568 -7.944974 -1.432053 0.000000 0.000000 0.000000 -1.834652 20.946776 -13.197926 5.434370 -25.653277 9.533451 18.257789 7.734013 -4.461447 -32.414616 -16.924159 18.218360 13.503261 10.111933 -73.728723 0.000000 0.000000 0.000000 4.997787 13.213652 -15.141858 23.350165 1.821204 6.370920 3.332241 0.165250 -3.058459 0.123714 0.414401 0.345606 0.000000 0.000000 0.000000 0.792440 3.604213 -4.322093 2.241220 16.936692 21.362033 -6.457711 -59.460772 -4.981204 0.000000 0.000000 0.000000 -0.423879 0.775922 -3.981447 1.626334 -18.889458 -11.602860 6.431852 2.870520 0.299850 24.031155 18.955395 -54.415526 140.339747 -70.113722 126.623074 0.000000 0.000000 0.000000 -0.809556 1.800876 -2.611937 -4.397341 5.790904 23.950398 -6.503032 -14.032797 7.114740 9.449096 7.911476 11.653542 -167.625096 50.142246 176.918401 0.000000 0.000000 0.000000 
12.999347 98.965057 49.979927 0.000000 0.000000 0.000000 2.428686 16.451277 -15.111208 -101.349038 -4.612597 28.885717 84.615908 -17.561142 -2.397882 22.426923 -9.692074 10.097697 3.242076 -7.795911 1.132311 0.000000 0.000000 0.000000 -1.718697 15.269067 -14.386074 5.799858 -20.869819 6.607212 21.590563 7.016100 -3.063680 -17.616912 -12.854382 19.763221 11.759228 9.764170 -66.114503 0.000000 0.000000 0.000000 6.519282 10.636789 -16.938031 22.540082 2.380680 6.288079 2.948933 -0.188328 -2.529329 0.113495 0.300634 0.309158 0.000000 0.000000 0.000000 0.197554 3.195203 -3.748933 2.303911 16.841872 20.815007 -7.685594 -56.975334 -5.705447 0.000000 0.000000 0.000000 -0.772318 0.464120 -3.725049 2.148452 -15.123401 -12.963696 5.113004 2.222926 -0.770757 31.406012 22.949103 -54.819518 134.763894 -74.097574 121.725309 0.000000 0.000000 0.000000 -1.662984 1.448216 -2.238660 -4.476985 7.234057 24.407910 -8.019486 -13.380963 4.976198 9.645276 3.319560 16.333009 -168.198572 50.099912 176.763793 0.000000 0.000000 0.000000 
13.146428 98.078461 60.448826 0.000000 0.000000 0.000000 -0.065614 8.557891 -14.837546 -96.078393 -1.217523 28.316045 72.657947 -16.306064 -1.792997 16.319523 -11.537347 -1.139722 11.975786 -7.125125 8.046964 0.000000 0.000000 0.000000 -1.763624 7.741781 -14.835043 2.534048 -12.773691 2.269065 30.737180 7.364410 -1.555522 4.630467 -7.123466 20.082283 13.141852 5.727696 -50.460314 0.000000 0.000000 0.000000 6.030208 8.233051 -17.596133 21.198945 2.618032 5.908038 2.023157 -0.546659 -2.020884 0.071672 -0.049342 0.114163 0.000000 0.000000 0.000000 -0.378774 2.689578 -3.139220 2.111751 16.896804 19.988392 -7.108453 -55.155799 -5.824327 0.000000 0.000000 0.000000 -1.376862 0.038136 -3.582873 2.576517 -11.608901 -14.870278 4.517911 0.051184 -0.905399 36.604637 27.413637 -54.973239 125.094163 -79.269454 113.419116 0.000000 0.000000 0.000000 -2.585995 0.999216 -1.950978 -4.498504 8.741268 25.245819 -6.836820 -9.391048 2.606007 10.183121 -2.747992 21.868850 -169.453168 54.774641 177.035717 0.000000 0.000000 0.000000 
13.394566 96.974899 70.992470 0.000000 0.000000 0.000000 -3.136377 0.699229 -13.701698 -84.445829 3.542016 25.393470 63.000811 -13.221792 -0.428060 9.371781 -9.391503 -8.609088 11.534212 -6.537403 16.918708 0.000000 0.000000 0.000000 -1.478417 0.084045 -14.456859 -4.602635 -2.530488 -1.288940 41.925296 5.799104 0.291156 25.207349 -3.915516 16.357497 16.813836 0.163115 -31.746405 0.000000 0.000000 0.000000 3.676060 6.757695 -16.603003 19.572436 2.240342 5.056224 0.769277 -0.815816 -1.801297 -0.098481 -0.586637 -0.038876 0.000000 0.000000 0.000000 -1.106239 2.171917 -2.773997 1.928119 17.303308 18.488762 -4.202752 -54.837458 -4.619808 0.000000 0.000000 0.000000 -2.143039 -0.429742 -3.599394 2.756394 -9.600816 -16.842840 4.849170 -2.029252 -1.167178 38.032402 31.108954 -54.170910 91.246054 -83.975427 81.442609 0.000000 0.000000 0.000000 -3.397502 0.494218 -1.955664 -4.390203 10.090987 26.317697 -5.617157 -4.478699 2.331261 12.541061 -5.923955 26.171885 -171.166057 66.861261 177.695950 0.000000 0.000000 0.000000 
13.586140 96.085182 80.476028 0.000000 0.000000 0.000000 -6.357450 -6.680030 -12.086468 -66.504521 9.647920 20.278589 55.221912 -7.265999 0.542998 -0.312548 -2.519855 -8.838814 7.909462 -6.328595 20.755273 0.000000 0.000000 0.000000 -2.601338 -5.653790 -13.452580 -14.309506 6.960099 -2.043474 52.792260 2.310372 2.918437 37.312982 -4.287448 12.168802 18.939114 -5.141731 -17.757261 0.000000 0.000000 0.000000 -0.730525 5.709525 -13.881549 17.806023 1.029749 3.542660 -0.518693 -1.073425 -2.016926 -0.394508 -1.036407 -0.052747 0.000000 0.000000 0.000000 -2.161745 1.725909 -2.732865 1.893414 18.196596 16.079684 2.292572 -56.123494 -0.637671 0.000000 0.000000 0.000000 -2.853915 -0.913827 -3.677207 2.485107 -9.924682 -18.305636 5.053052 -4.014824 -2.543429 34.887175 32.802875 -51.555272 25.084956 -81.332158 17.625360 0.000000 0.000000 0.000000 -4.120523 -0.105706 -2.321994 -4.093737 10.999480 27.405314 -4.349747 -0.981704 3.592253 16.844257 -1.892473 27.499440 -172.838196 86.606908 178.474482 0.000000 0.000000 0.000000 
